<?xml version="1.0" encoding="UTF-8" standalone="no"?>
<!-- Created with Inkscape (http://www.inkscape.org/) -->

<svg
   xmlns:dc="http://purl.org/dc/elements/1.1/"
   xmlns:cc="http://creativecommons.org/ns#"
   xmlns:rdf="http://www.w3.org/1999/02/22-rdf-syntax-ns#"
   xmlns:svg="http://www.w3.org/2000/svg"
   xmlns="http://www.w3.org/2000/svg"
   xmlns:sodipodi="http://sodipodi.sourceforge.net/DTD/sodipodi-0.dtd"
   xmlns:inkscape="http://www.inkscape.org/namespaces/inkscape"
   version="1.1"
   id="svg51590"
   xml:space="preserve"
   width="800"
   height="800"
   viewBox="0 0 800 800"
   sodipodi:docname="somalia-waving-flag.svg"
   inkscape:version="0.92.4 (5da689c313, 2019-01-14)"><metadata
     id="metadata51596"><rdf:RDF><cc:Work
         rdf:about=""><dc:format>image/svg+xml</dc:format><dc:type
           rdf:resource="http://purl.org/dc/dcmitype/StillImage" /><dc:title></dc:title></cc:Work></rdf:RDF></metadata><defs
     id="defs51594"><clipPath
       clipPathUnits="userSpaceOnUse"
       id="clipPath51606"><path
         d="M 0,600 H 600 V 0 H 0 Z"
         id="path51604"
         inkscape:connector-curvature="0" /></clipPath></defs><sodipodi:namedview
     pagecolor="#ffffff"
     bordercolor="#666666"
     borderopacity="1"
     objecttolerance="10"
     gridtolerance="10"
     guidetolerance="10"
     inkscape:pageopacity="0"
     inkscape:pageshadow="2"
     inkscape:window-width="1920"
     inkscape:window-height="1018"
     id="namedview51592"
     showgrid="false"
     inkscape:zoom="0.66257937"
     inkscape:cx="620.33898"
     inkscape:cy="345.76271"
     inkscape:window-x="-8"
     inkscape:window-y="-8"
     inkscape:window-maximized="1"
     inkscape:current-layer="g51598" /><g
     id="g51598"
     inkscape:groupmode="layer"
     inkscape:label="Flag-of-Somalia-wavy"
     transform="matrix(1.3333333,0,0,-1.3333333,0,800)"><g
       id="g51600"><g
         id="g51602"
         clip-path="url(#clipPath51606)"><path
           d="m 52.701,499.726 c 26.646,7.427 56.525,13.871 83.913,3.606 26.926,-10.106 47.63,-28.602 70.211,-33.488 22.838,-4.922 49.694,3.381 78.567,8.082 13.896,2.254 26.991,3.1 37.937,0.537 9.486,-2.24 16.88,-7.426 22.614,-12.987 5.393,-5.237 10.299,-10.757 16.724,-13.904 6.948,-3.402 16.222,-4.356 26.905,-3.748 26.42,1.524 55.476,10.329 80.568,9.262 8.941,-0.383 15.74,-3.033 18.512,-7.29 2.517,-3.864 2.631,-8.736 4.779,-12.346 2.182,-3.637 7.645,-5.838 14.874,-6.239 9.617,-0.54 21.557,0.887 35.212,2.632 4.692,-96.107 9.671,-194.818 14.656,-296.255 -15.027,1.371 -29.204,2.889 -41.692,3.328 -10.185,0.357 -18.209,0.01 -23.142,-2.5 -3.646,-1.867 -5.035,-5.697 -6.469,-9.201 -1.523,-3.721 -5.22,-7.42 -11.448,-8.918 -8.688,-2.096 -20.487,-1.594 -34.201,-0.367 -14.94,1.343 -29.976,3.498 -44.335,4.824 -12.944,1.195 -24.31,1.648 -33.659,-0.043 -7.962,-1.438 -14.553,-4.953 -20.154,-9.191 -5.778,-4.383 -11.789,-9.594 -19.784,-12.913 -9.172,-3.802 -20.912,-5.171 -34.02,-4.599 -29.219,1.273 -57.823,9.879 -83.64,8.68 -23.713,-1.112 -46.461,-13.895 -72.833,-24.704 -28.441,-11.642 -60.108,-13.326 -88.26,-7.142 1.42,74.304 2.826,147.166 4.201,218.615 1.347,70.073 2.664,138.813 3.964,206.269"
           style="fill:#4189dd;fill-opacity:1;fill-rule:nonzero;stroke:none"
           id="path51608"
           inkscape:connector-curvature="0" /><path
           d="m 345.207,374.878 c -4.689,-24.968 -9.798,-51.209 -16.217,-78.544 9.026,-4.748 15.655,-10.494 22.504,-14.951 -2.275,30.435 -4.219,61.596 -6.287,93.495"
           style="fill:#ffffff;fill-opacity:1;fill-rule:nonzero;stroke:none"
           id="path51610"
           inkscape:connector-curvature="0" /><path
           d="m 345.207,374.878 c 4.047,-28.382 7.759,-55.589 13.08,-81.468 -7.557,-3.324 -14.076,-7.422 -21.389,-11.224 2.941,31.654 5.674,62.551 8.309,92.692"
           style="fill:#ffffff;fill-opacity:1;fill-rule:nonzero;stroke:none"
           id="path51612"
           inkscape:connector-curvature="0" /><path
           d="m 410.334,313.931 c -17.397,-0.737 -32.194,-1.239 -44.012,-0.58 -9.242,0.517 -16.681,2.211 -23.695,3.838 -0.115,-14.188 -0.231,-28.376 -0.348,-42.572 7.082,6.725 14.441,13.522 24.13,19.238 11.627,6.854 26.605,13.147 43.925,20.076"
           style="fill:#ffffff;fill-opacity:1;fill-rule:nonzero;stroke:none"
           id="path51614"
           inkscape:connector-curvature="0" /><path
           d="m 410.334,313.931 c -14.157,-7.992 -26.921,-15.564 -37.367,-23.587 -9.281,-7.131 -16.674,-14.924 -22.635,-23.078 -4.246,11.127 -7.956,22.933 -12.573,35.014 8.201,1.318 16.074,2.588 25.482,4.097 12.293,1.975 28.088,4.506 47.093,7.554"
           style="fill:#ffffff;fill-opacity:1;fill-rule:nonzero;stroke:none"
           id="path51616"
           inkscape:connector-curvature="0" /><path
           d="m 267.92,319.506 c 15.315,-7.963 30.165,-16.199 42.908,-25.688 11.52,-8.582 20.393,-17.828 27.16,-26.738 4.654,11.488 8.643,22.645 12.991,33.213 -7.834,3.534 -16.285,8.445 -28.16,11.616 -15.327,4.086 -34.349,5.994 -54.899,7.597"
           style="fill:#ffffff;fill-opacity:1;fill-rule:nonzero;stroke:none"
           id="path51618"
           inkscape:connector-curvature="0" /><path
           d="m 267.92,319.506 c 18.623,1.005 36.055,1.728 50.93,0.946 11.769,-0.622 20.67,-2.534 27.921,-4.244 -0.111,-13.891 -0.226,-27.786 -0.338,-41.683 -7.185,7.364 -15.474,15.903 -27.531,23.174 -14.359,8.649 -32.177,15.38 -50.982,21.807"
           style="fill:#ffffff;fill-opacity:1;fill-rule:nonzero;stroke:none"
           id="path51620"
           inkscape:connector-curvature="0" /><path
           d="m 376.915,226.123 c -8.627,24.455 -15.208,49.348 -20.128,74.814 -7.267,-3.142 -13.808,-6.945 -21.379,-10.505 12.577,-22.649 22.01,-45.744 41.507,-64.309"
           style="fill:#ffffff;fill-opacity:1;fill-rule:nonzero;stroke:none"
           id="path51622"
           inkscape:connector-curvature="0" /><path
           d="m 376.915,226.123 c -19.332,13.154 -29.813,30.203 -42.909,45.981 5.192,11.548 9.422,22.792 13.668,33.446 6.725,-27.843 15.364,-54.509 29.241,-79.427"
           style="fill:#ffffff;fill-opacity:1;fill-rule:nonzero;stroke:none"
           id="path51624"
           inkscape:connector-curvature="0" /><path
           d="m 307.473,217.623 c 22.476,17.244 33.692,38.473 46.446,54.33 -4.563,10.986 -8.241,22.682 -12.426,34.719 -8.241,-28.17 -18.732,-58.52 -34.02,-89.049"
           style="fill:#ffffff;fill-opacity:1;fill-rule:nonzero;stroke:none"
           id="path51626"
           inkscape:connector-curvature="0" /><path
           d="m 307.473,217.623 c 9.24,29.5 16.97,58.615 23.406,86.877 8.666,-5 15.051,-11.051 22.006,-15.641 -12.214,-21.189 -23.08,-47.525 -45.412,-71.236"
           style="fill:#ffffff;fill-opacity:1;fill-rule:nonzero;stroke:none"
           id="path51628"
           inkscape:connector-curvature="0" /></g></g></g></svg>